<?xml version="1.0"?>
<svg xmlns="http://www.w3.org/2000/svg" xmlns:xlink="http://www.w3.org/1999/xlink" xmlns:svgjs="http://svgjs.com/svgjs" version="1.1" width="512" height="512" x="0" y="0" viewBox="0 0 24 24" style="enable-background:new 0 0 512 512" xml:space="preserve"><g><path xmlns="http://www.w3.org/2000/svg" d="M19.5,0H4.5A4.505,4.505,0,0,0,0,4.5v15A4.505,4.505,0,0,0,4.5,24h15A4.505,4.505,0,0,0,24,19.5V4.5A4.505,4.505,0,0,0,19.5,0ZM4.5,3h15A1.5,1.5,0,0,1,21,4.5v15a1.492,1.492,0,0,1-.44,1.06l-8.732-8.732a4,4,0,0,0-5.656,0L3,15V4.5A1.5,1.5,0,0,1,4.5,3Z" fill="#1f1f1f" data-original="#000000"/><circle xmlns="http://www.w3.org/2000/svg" cx="15.5" cy="7.5" r="2.5" fill="#1f1f1f" data-original="#000000"/></g></svg>
